HIERARCHY
ROOT Hips
{
	OFFSET 0.000000 0.000000 0.000000
	CHANNELS 6 Xposition Yposition Zposition Zrotation Yrotation Xrotation 
	JOINT LHipJoint
	{
		OFFSET 0.000000 0.000000 0.000000
		CHANNELS 3 Zrotation Yrotation Xrotation
		JOINT LeftUpLeg
		{
			OFFSET 1.363060 -1.794630 0.839290
			CHANNELS 3 Zrotation Yrotation Xrotation
			JOINT LeftLeg
			{
				OFFSET 2.448110 -6.726130 0.000000
				CHANNELS 3 Zrotation Yrotation Xrotation
				JOINT LeftFoot
				{
					OFFSET 2.562200 -7.039590 0.000000
					CHANNELS 3 Zrotation Yrotation Xrotation
					JOINT LeftToeBase
					{
						OFFSET 0.157640 -0.433110 2.322550
						CHANNELS 3 Zrotation Yrotation Xrotation
						End Site
						{
							OFFSET 0.000000 0.000000 0.000000
						}
					}
				}
			}
		}
	}
	JOINT RHipJoint
	{
		OFFSET 0.000000 0.000000 0.000000
		CHANNELS 3 Zrotation Yrotation Xrotation
		JOINT RightUpLeg
		{
			OFFSET -1.305520 -1.794630 0.839290
			CHANNELS 3 Zrotation Yrotation Xrotation
			JOINT RightLeg
			{
				OFFSET -2.542530 -6.985550 0.000000
				CHANNELS 3 Zrotation Yrotation Xrotation
				JOINT RightFoot
				{
					OFFSET -2.568260 -7.056230 0.000000
					CHANNELS 3 Zrotation Yrotation Xrotation
					JOINT RightToeBase
					{
						OFFSET -0.164730 -0.452590 2.363150
						CHANNELS 3 Zrotation Yrotation Xrotation
						End Site
						{
							OFFSET 0.000000 0.000000 0.000000
						}
					}
				}
			}
		}
	}
}
MOTION
Frames: 34
Frame Time: 0.008333
-9.568570 17.026271 -0.256662 -11.304590 80.213650 -3.223258 -11.498155 5.902681 0.775244 -6.220943 10.739322 5.571994 -0.916676 2.029106 24.354536 0.402741 -5.858774 18.690326 -2.615700 -0.000000 -81.388000 7.745728 -1.211793 5.293608 14.426768 10.699647 -25.031274 3.541647 0.561818 7.473427 0.261977 0.635585 2.645478 -0.545400 -0.000000 -16.759400
-9.389030 17.033116 -0.254928 -14.710951 79.974215 -6.783904 -11.623251 5.884953 0.717156 -5.304343 11.500011 4.582333 -0.709357 2.119094 26.725400 0.556471 -6.029003 20.622218 -2.957600 0.000000 -80.393000 7.702053 -1.342500 5.255815 15.283132 10.467067 -24.498395 3.625402 0.464214 8.197098 0.308269 1.013232 2.357598 -0.453900 0.000000 -14.336201
-9.212987 17.040019 -0.252008 -17.621135 79.717530 -9.835697 -11.753372 5.836485 0.643688 -4.459482 12.291423 3.482901 -0.512521 2.191109 29.206898 0.725282 -6.005008 22.497220 -3.217200 0.000000 -78.320300 7.645394 -1.468447 5.219929 16.066954 10.246283 -23.964929 3.711135 0.376474 8.924509 0.357312 1.465563 1.869378 -0.348800 0.000000 -11.934100
-9.040717 17.046981 -0.247933 -20.083807 79.449604 -12.424028 -11.881337 5.760403 0.555158 -3.698845 13.089033 2.281682 -0.332495 2.250365 31.781711 0.903451 -5.695004 24.200928 -3.319400 -0.000001 -75.202200 7.580572 -1.584736 5.189640 16.773275 10.053579 -23.418319 3.796269 0.302688 9.611018 0.403699 1.941553 1.241017 -0.246500 0.000000 -9.692201
-8.872262 17.054032 -0.242815 -22.190594 79.181616 -14.637515 -12.000367 5.659298 0.453148 -3.026152 13.866434 0.987181 -0.171490 2.303282 34.430619 1.084785 -5.018859 25.618888 -3.191800 -0.000000 -71.191300 7.511361 -1.689487 5.168730 17.405398 9.898809 -22.847030 3.879123 0.246539 10.210141 0.442087 2.391653 0.531629 -0.159500 0.000000 -7.675900
-8.707643 17.061332 -0.236648 -23.981021 78.928420 -16.514402 -12.103982 5.537822 0.342642 -2.457947 14.587204 -0.387648 -0.028673 2.356801 37.124779 1.264486 -3.914567 26.651371 -2.778700 -0.000000 -66.552000 7.443451 -1.781969 5.156029 17.960547 9.770055 -22.251038 3.956812 0.208826 10.695218 0.470403 2.786804 -0.198327 -0.092300 0.000000 -6.047701
-8.546673 17.069040 -0.229559 -25.532722 78.704595 -18.131927 -12.188529 5.399655 0.229365 -1.998991 15.217682 -1.829824 0.100153 2.416298 39.833518 1.440030 -2.367076 27.224353 -2.066000 0.000000 -61.624300 7.380100 -1.863294 5.150483 18.443630 9.656676 -21.629486 4.027742 0.189980 11.043008 0.486883 3.101549 -0.898779 -0.046300 0.000000 -4.882000
-8.389222 17.077335 -0.221584 -26.874935 78.524171 -19.521540 -12.251406 5.249926 0.120247 -1.661165 15.722704 -3.321657 0.219583 2.485547 42.521278 1.611003 -0.407428 27.295076 -1.085100 -0.000000 -56.740700 7.326162 -1.934219 5.146407 18.853246 9.534475 -20.987538 4.089583 0.188285 11.250721 0.492555 3.330764 -1.530928 -0.018300 -0.000000 -4.257100
-8.235044 17.086407 -0.212888 -28.060015 78.397405 -20.737735 -12.292629 5.092425 0.021533 -1.443711 16.075824 -4.847233 0.334168 2.565676 45.155290 1.777962 1.881464 26.848749 0.085400 0.000000 -52.150699 7.284025 -1.996332 5.139586 19.193400 9.387493 -20.328121 4.141296 0.202055 11.318869 0.488351 3.471817 -2.070283 -0.004800 -0.000000 -4.152200
-8.083784 17.096349 -0.203735 -29.156123 78.330635 -21.848926 -12.314389 4.929550 -0.060961 -1.335600 16.259224 -6.394983 0.447408 2.655387 47.707456 1.941214 4.378643 25.893579 1.334300 -0.000000 -47.979400 7.253417 -2.051942 5.129391 19.472030 9.213494 -19.653998 4.182782 0.229757 11.248861 0.474635 3.520221 -2.500526 -0.003100 0.000001 -4.514400
-7.935306 17.107230 -0.194142 -30.155607 78.326735 -22.852535 -12.318212 4.765527 -0.123828 -1.335307 16.262799 -7.945225 0.559898 2.752819 50.144575 2.100488 6.951006 24.465892 2.541800 -0.000001 -44.242900 7.237354 -2.101045 5.108358 19.686809 8.994382 -18.970634 4.213096 0.267713 11.066849 0.454919 3.498781 -2.825480 -0.008600 0.000000 -5.269300
-7.789291 17.119046 -0.184406 -31.104887 78.383548 -23.794598 -12.307962 4.601498 -0.164090 -1.423779 16.087552 -9.488097 0.671458 2.853938 52.441472 2.254109 9.459842 22.621206 3.593300 -0.000001 -40.888000 7.233714 -2.145260 5.077658 19.845672 8.740083 -18.280053 4.233095 0.313986 10.785031 0.429967 3.412682 -3.050274 -0.019799 0.000001 -6.320700
-7.645499 17.131719 -0.174630 -32.011448 78.495538 -24.683522 -12.286931 4.438807 -0.180618 -1.585495 15.741563 -11.011509 0.779898 2.954558 54.572487 2.399175 11.783968 20.436625 4.401100 -0.000000 -37.832300 7.241349 -2.184904 5.036306 19.952323 8.457084 -17.584773 4.243478 0.366045 10.425004 0.401594 3.278092 -3.190827 -0.034899 -0.000000 -7.577400
-7.503800 17.145104 -0.164984 -32.859571 78.653324 -25.507038 -12.257868 4.278560 -0.174620 -1.805373 15.240426 -12.499133 0.881696 3.050772 56.511870 2.531675 13.828558 18.005617 4.914700 -0.000001 -35.021700 7.259467 -2.219291 4.980692 20.009269 8.146774 -16.884394 4.245446 0.421340 10.013651 0.372295 3.120522 -3.276317 -0.051400 0.000000 -8.886000
-7.363999 17.159030 -0.155642 -33.658431 78.845785 -26.272216 -12.223983 4.120025 -0.146311 -2.063371 14.604138 -13.947834 0.973384 3.138368 58.243459 2.646416 15.525181 15.424523 5.121400 -0.000000 -32.394000 7.284389 -2.249011 4.914839 20.023842 7.829369 -16.179823 4.240604 0.478895 9.562307 0.342399 2.946796 -3.322569 -0.068901 0.000000 -10.200701
-7.225898 17.173316 -0.146751 -34.390220 79.060886 -26.960713 -12.187373 3.962845 -0.097562 -2.343755 13.857009 -15.352215 1.051223 3.214278 59.752698 2.738184 16.837718 12.789861 5.045600 -0.000000 -29.927301 7.313629 -2.273962 4.839912 20.001136 7.515177 -15.470646 4.230573 0.537887 9.084155 0.313044 2.770866 -3.350200 -0.086300 -0.000000 -11.455800
-7.089401 17.187754 -0.138439 -35.024901 79.285522 -27.544890 -12.149309 3.806450 -0.032081 -2.632448 13.026427 -16.704358 1.111943 3.276595 61.027009 2.802768 17.759793 10.193773 4.740500 0.000000 -27.660100 7.345387 -2.293607 4.754377 19.946282 7.205926 -14.753278 4.217186 0.597760 8.590807 0.285831 2.610142 -3.381084 -0.101600 -0.000000 -12.559500
-6.954298 17.202193 -0.130774 -35.549484 79.509759 -28.008179 -12.110895 3.649911 0.049549 -2.917822 12.136904 -18.010773 1.153549 3.323535 62.062819 2.837448 18.308244 7.706517 4.272700 0.000000 -25.577400 7.376812 -2.309063 4.663740 19.865473 6.913215 -14.030058 4.201777 0.659300 8.078653 0.260747 2.463997 -3.415682 -0.115100 -0.000000 -13.559800
-6.820546 17.216509 -0.123859 -35.928641 79.723285 -28.323763 -12.072480 3.492752 0.141786 -3.189031 11.218991 -19.258595 1.174619 3.354949 62.852081 2.842309 18.523730 5.385702 3.713400 -0.000000 -23.719600 7.407290 -2.320500 4.562887 19.764355 6.620924 -13.291091 4.186138 0.722235 7.552307 0.240129 2.351543 -3.466649 -0.124500 0.000000 -14.367800
-6.687589 17.230484 -0.117550 -36.162217 79.922712 -28.470630 -12.032958 3.333967 0.249070 -3.447815 10.279608 -20.481858 1.175461 3.369867 63.406667 2.820700 18.464435 3.256233 3.123000 0.000000 -22.049600 7.435511 -2.329047 4.465164 19.644318 6.352092 -12.559822 4.170120 0.789284 6.993131 0.221877 2.249984 -3.510159 -0.132800 0.000000 -15.171600
-6.555602 17.244148 -0.111940 -36.217386 80.103342 -28.436862 -11.992388 3.173682 0.364870 -3.685844 9.347635 -21.652888 1.156470 3.368966 63.718857 2.778613 18.201845 1.335555 2.550200 0.000000 -20.576400 7.462526 -2.335929 4.359676 19.510075 6.066976 -11.817259 4.155187 0.859034 6.407697 0.209775 2.186606 -3.554229 -0.137100 0.000000 -15.848300
-6.424203 17.257406 -0.106881 -36.095252 80.266331 -28.216235 -11.949261 3.011511 0.490685 -3.906000 8.428673 -22.784317 1.119190 3.352261 63.798286 2.724668 17.814937 -0.387282 2.023700 0.000000 -19.245500 7.489268 -2.342444 4.250317 19.362016 5.761178 -11.075544 4.141094 0.932207 5.787889 0.203867 2.154928 -3.580314 -0.138500 0.000001 -16.493700
-6.293248 17.270217 -0.102235 -35.797038 80.414777 -27.811953 -11.902272 2.847434 0.626816 -4.110246 7.527702 -23.876021 1.065569 3.319981 63.652516 2.668827 17.383704 -1.933863 1.556800 0.000000 -18.017500 7.517208 -2.349914 4.136692 19.200191 5.419255 -10.339193 4.127654 1.008457 5.132477 0.205017 2.156897 -3.577541 -0.137001 -0.000000 -17.124200
-6.162514 17.282558 -0.097851 -35.335196 80.553198 -27.236345 -11.849879 2.681519 0.773835 -4.301163 6.644783 -24.928191 0.997792 3.272475 63.291272 2.621289 16.982151 -3.335488 1.149600 0.000000 -16.839200 7.548096 -2.359417 4.018417 19.023921 5.028502 -9.615089 4.114461 1.086922 4.444214 0.213809 2.193268 -3.535674 -0.132900 -0.000000 -17.773000
-6.031844 17.294344 -0.093611 -34.736710 80.687380 -26.517191 -11.790898 2.513541 0.932275 -4.478589 5.777857 -25.940003 0.918362 3.210027 62.725626 2.591271 16.671490 -4.624398 0.793800 -0.000000 -15.675100 7.582828 -2.371806 3.895680 18.834506 4.582239 -8.908349 4.101221 1.166656 3.728499 0.229898 2.261846 -3.451987 -0.126100 0.000000 -18.414300
-5.901143 17.305622 -0.089290 -34.006186 80.824684 -25.660613 -11.723779 2.344613 1.103475 -4.647174 4.920168 -26.908486 0.829749 3.133037 61.964546 2.586638 16.499173 -5.825019 0.478400 -0.000001 -14.517100 7.623380 -2.387418 3.768123 18.627574 4.073917 -8.225494 4.086838 1.245801 2.996402 0.253251 2.362032 -3.321419 -0.116700 -0.000000 -19.101999
-5.770260 17.316244 -0.084957 -33.206957 80.968710 -24.727017 -11.648229 2.173612 1.286879 -4.798961 4.070378 -27.836842 0.734913 3.041904 61.022146 2.612076 16.487437 -6.958545 0.190000 0.000000 -13.344400 7.668298 -2.406326 3.638231 18.411121 3.516096 -7.569893 4.071695 1.323897 2.256429 0.281179 2.482198 -3.156662 -0.105200 0.000000 -19.731700
-5.639242 17.326214 -0.080399 -32.333241 81.126730 -23.713106 -11.563308 2.002430 1.482977 -4.938294 3.223089 -28.721328 0.636487 2.937270 59.905136 2.670169 16.644414 -8.025054 -0.079700 0.000000 -12.186900 7.718822 -2.427912 3.506022 18.179716 2.912192 -6.944874 4.054466 1.399030 1.523302 0.312609 2.618095 -2.961551 -0.091800 -0.000000 -20.361200
-5.508018 17.335377 -0.075782 -31.452803 81.300773 -22.682716 -11.469620 1.830417 1.690448 -5.055446 2.381056 -29.567873 0.537758 2.819682 58.625816 2.759525 16.952926 -9.016567 -0.335800 0.000000 -11.069000 7.772288 -2.451626 3.375697 17.943035 2.287640 -6.351250 4.035515 1.471372 0.804742 0.343565 2.750893 -2.755658 -0.078000 -0.000000 -20.888700
-5.376618 17.343680 -0.071181 -30.583797 81.493989 -21.653712 -11.367465 1.659103 1.907496 -5.149831 1.547861 -30.377874 0.441473 2.690165 57.191549 2.876050 17.383590 -9.909786 -0.575600 -0.000000 -10.036900 7.827985 -2.476467 3.248671 17.702062 1.658681 -5.788168 4.014234 1.540214 0.111321 0.371658 2.869114 -2.551848 -0.065000 -0.000000 -21.326200
-5.245140 17.351028 -0.066751 -29.759886 81.708420 -20.659852 -11.258073 1.489932 2.131697 -5.218921 0.732083 -31.153632 0.350171 2.549694 55.609110 3.012432 17.893327 -10.673433 -0.790000 -0.000001 -9.141200 7.884086 -2.501725 3.127634 17.461038 1.046204 -5.252235 3.990351 1.605650 -0.550917 0.393962 2.957747 -2.366136 -0.054500 0.000000 -21.643900
-5.113664 17.357292 -0.062719 -29.007115 81.944727 -19.728377 -11.142867 1.325025 2.359241 -5.263929 -0.053651 -31.895776 0.265488 2.399626 53.884447 3.159168 18.432599 -11.275152 -0.964500 -0.000000 -8.424300 7.939282 -2.526742 3.013690 17.223161 0.465803 -4.738455 3.963655 1.667645 -1.177425 0.408537 3.006372 -2.210282 -0.048100 0.000000 -21.847100
-4.982297 17.362380 -0.059340 -28.351859 82.202867 -18.888603 -11.023659 1.166858 2.585718 -5.289018 -0.793755 -32.602821 0.187994 2.241326 52.022041 3.305395 18.949676 -11.686051 -1.082300 -0.000000 -7.915100 7.992484 -2.551257 2.907238 16.990890 -0.071770 -4.240321 3.934067 1.726173 -1.766009 0.414225 3.008624 -2.092666 -0.046700 0.000000 -21.951300
-4.851120 17.366154 -0.056913 -27.812187 82.481923 -18.163097 -10.902379 1.018394 2.805751 -5.302360 -1.470370 -33.269130 0.116834 2.076337 50.025970 3.440046 19.395595 -11.886991 -1.128000 0.000000 -7.622199 8.043303 -2.575274 2.806858 16.765146 -0.564186 -3.750662 3.901665 1.780794 -2.314855 0.411151 2.965422 -2.015953 -0.050400 0.000000 -21.998500
